<?xml version="1.0" encoding="UTF-8" standalone="no"?>
<!-- Created with Inkscape (http://www.inkscape.org/) -->

<svg
   width="512"
   height="512"
   viewBox="0 0 135.46666 135.46667"
   version="1.1"
   id="svg1"
   xmlns="http://www.w3.org/2000/svg"
   xmlns:svg="http://www.w3.org/2000/svg">
  <defs
     id="defs1" />
  <g
     id="layer1">
    <path
       id="rect1"
       style="fill:#a4a5a7;fill-opacity:1;stroke-width:0.0555049;stroke-linecap:round"
       d="m 48.12921,-48.12921 -3.9e-5,34.986059 34.986058,-3.9e-5 4e-5,-34.986059 z m 40.204882,-2.58e-4 -4e-5,34.986058 34.986058,-3.9e-5 -3.3e-4,-34.985691 z m -40.134979,40.2047733 6.91e-4,34.9860547 34.985692,3.28e-4 3.9e-5,-34.9860583 z m 40.13472,1.08e-4 -3.9e-5,34.9860587 34.986056,-3.9e-5 4e-5,-34.9860588 z"
       transform="matrix(0.7034037,0.71079057,-0.7034037,0.71079057,0,0)" />
    <path
       id="path34"
       style="fill:#ffffff;fill-opacity:1;stroke-width:0.0555049;stroke-linecap:round"
       d="m 73.904337,-22.389345 a 16.74107,16.741109 45 0 0 2.09e-4,23.6754425 16.74107,16.741109 45 0 0 23.675443,2.094e-4 16.74107,16.741109 45 0 0 -2.09e-4,-23.6754429 16.74107,16.741109 45 0 0 -23.675443,-2.09e-4 z m 34.532063,-5.63781 -4e-5,34.9860584 34.98606,-3.86e-5 -3.3e-4,-34.9856908 z m -40.134976,40.204773 3.29e-4,34.985691 34.986057,6.92e-4 -3.3e-4,-34.986422 z m 40.134716,1.08e-4 -3e-5,34.986059 34.98605,-3.9e-5 4e-5,-34.986058 z"
       transform="matrix(0.70340371,0.71079056,-0.70340371,0.71079056,0,0)" />
  </g>
</svg>
